<?xml version="1.0" standalone="no"?>
<!DOCTYPE svg PUBLIC "-//W3C//DTD SVG 20010904//EN"
 "http://www.w3.org/TR/2001/REC-SVG-20010904/DTD/svg10.dtd">
<svg version="1.0" xmlns="http://www.w3.org/2000/svg"
 width="512.000000pt" height="512.000000pt" viewBox="0 0 512.000000 512.000000"
 preserveAspectRatio="xMidYMid meet">
<metadata>
Created by potrace 1.14, written by Peter Selinger 2001-2017
</metadata>
<g transform="translate(0.000000,512.000000) scale(0.100000,-0.100000)"
fill="#000000" stroke="none">
<path d="M1531 3777 c-31 -16 -323 -503 -352 -589 -23 -67 -30 -184 -17 -267
12 -66 72 -183 122 -233 52 -53 124 -96 175 -104 31 -5 41 -13 61 -52 31 -58
97 -125 149 -152 46 -23 47 -26 25 -51 -14 -16 -20 -15 -92 13 -174 68 -328
38 -462 -90 -70 -67 -80 -96 -50 -135 35 -44 69 -37 146 33 101 92 188 108
318 60 56 -21 58 -23 52 -52 -3 -17 -6 -38 -6 -47 0 -13 -8 -17 -32 -16 -122
6 -261 -62 -341 -167 -33 -43 -34 -72 -2 -103 38 -39 63 -32 128 34 70 73 127
95 228 92 35 -1 36 -2 67 -82 18 -44 32 -84 32 -87 0 -4 -12 -9 -27 -10 -48
-4 -150 -61 -202 -113 -28 -28 -62 -74 -76 -103 -22 -45 -24 -57 -14 -78 6
-14 22 -31 35 -37 39 -17 75 3 112 64 39 65 84 102 148 121 85 25 93 22 149
-62 61 -93 142 -169 215 -203 l55 -26 475 -1 c387 -1 484 1 524 13 89 27 191
119 272 247 33 52 44 55 124 29 56 -18 127 -78 151 -128 8 -16 26 -37 41 -48
23 -17 31 -18 56 -8 16 7 35 24 41 38 28 60 -85 206 -202 262 -36 17 -74 31
-86 31 -22 0 -29 27 -13 46 5 5 19 37 32 72 16 45 28 62 41 63 11 1 25 2 32 3
28 4 117 -22 148 -44 19 -13 52 -44 74 -68 38 -42 43 -45 76 -38 58 10 74 62
36 119 -60 92 -188 163 -307 170 l-55 4 -7 44 c-4 24 -4 47 1 52 5 5 35 17 67
27 114 35 211 9 299 -80 38 -39 56 -50 80 -50 39 1 63 20 71 57 5 24 -1 37
-40 80 -134 148 -314 188 -498 109 -47 -20 -50 -20 -76 3 -28 23 -27 27 2 35
36 9 129 99 157 151 20 39 31 48 70 59 177 53 294 213 304 417 6 118 -26 228
-101 345 -19 29 -34 58 -34 64 0 5 -4 10 -9 10 -5 0 -11 8 -15 18 -3 9 -11 26
-18 36 -33 49 -78 126 -78 131 0 3 -25 43 -55 90 -56 88 -84 107 -122 86 -36
-19 -41 -35 -47 -161 -3 -69 -9 -177 -12 -240 -3 -63 -7 -116 -8 -117 -2 -2
-45 27 -97 63 -166 118 -173 121 -216 78 l-26 -26 7 -146 c8 -184 12 -217 43
-322 31 -107 66 -173 124 -232 46 -46 114 -88 144 -88 38 0 -14 -59 -85 -95
l-52 -26 -56 54 c-81 76 -208 153 -286 173 -31 7 -31 5 -6 46 60 99 -14 228
-131 228 -103 0 -176 -107 -139 -204 l10 -26 -134 0 -133 0 10 38 c45 170
-172 269 -270 122 -30 -43 -31 -112 -3 -158 24 -38 24 -42 7 -42 -47 0 -249
-124 -316 -194 -19 -20 -41 -36 -48 -36 -24 0 -87 37 -127 74 -35 31 -37 36
-20 42 113 38 187 105 239 219 53 115 72 214 81 422 8 157 0 184 -51 197 -31
8 -40 3 -172 -90 -58 -42 -107 -74 -109 -72 -2 2 -6 60 -9 129 -3 68 -8 162
-10 209 -2 47 -4 98 -5 113 0 29 -39 77 -62 77 -7 0 -24 -6 -37 -13z"/>
</g>
</svg>
